PathFileType	4	(x/y/z)	A01_PREF_T0015.trc
DataRate	CameraRate	NumFrames	NumMarkers	Units	OrigDataRate	OrigDataStartFrame	OrigNumFrames
240	240	11	48	mm	240	39	309
Frame#	Time	TOP_HEAD			R_AC			L_AC			R_ASIS			L_ASIS			R_PSIS			L_PSIS			SACRAL			L_IC			R_IC			L_GT			R_GT			R_LAT_KNEE			R_MED_KNEE			L_MED_KNEE			L_LAT_KNEE			R_TOE			L_TOE			R_1ST_MET			L_1ST_MET			L_5TH_MET			R_5TH_MET			R_LAT_ANK			R_MED_ANK			L_MED_ANK			L_LAT_ANK			L_HEEL_SUP			R_HEEL_SUP			L_HEEL_LAT			R_HEEL_LAT			L_HEEL_MED			R_HEEL_MED			R_LL_PROX_POST			R_LL_PROX_ANT			R_LL_DIST_ANT			R_LL_DIST_POST			R_THIGH_PROX_POST			R_THIGH_PROX_ANT			R_THIGH_DIST_ANT			R_THIGH_DIST_POST			L_PROS_PROX_ANT			L_PROS_PROX_POST			L_PROS_DIST_POST			L_PROS_DIST_ANT			L_THIGH_PROX_ANT			L_THIGH_PROX_POST			L_THIGH_DIST_POST			L_THIGH_DIST_ANT			
		X1	Y1	Z1	X2	Y2	Z2	X3	Y3	Z3	X4	Y4	Z4	X5	Y5	Z5	X6	Y6	Z6	X7	Y7	Z7	X8	Y8	Z8	X9	Y9	Z9	X10	Y10	Z10	X11	Y11	Z11	X12	Y12	Z12	X13	Y13	Z13	X14	Y14	Z14	X15	Y15	Z15	X16	Y16	Z16	X17	Y17	Z17	X18	Y18	Z18	X19	Y19	Z19	X20	Y20	Z20	X21	Y21	Z21	X22	Y22	Z22	X23	Y23	Z23	X24	Y24	Z24	X25	Y25	Z25	X26	Y26	Z26	X27	Y27	Z27	X28	Y28	Z28	X29	Y29	Z29	X30	Y30	Z30	X31	Y31	Z31	X32	Y32	Z32	X33	Y33	Z33	X34	Y34	Z34	X35	Y35	Z35	X36	Y36	Z36	X37	Y37	Z37	X38	Y38	Z38	X39	Y39	Z39	X40	Y40	Z40	X41	Y41	Z41	X42	Y42	Z42	X43	Y43	Z43	X44	Y44	Z44	X45	Y45	Z45	X46	Y46	Z46	X47	Y47	Z47	X48	Y48	Z48	

39	0.15885	-450.66	1773.2	308.79	-625.87	1524.6	544.98	-687.74	1532.9	89.706	-665.14	1070.6	536.48	-633.52	1013.9	185.97	-870.02	1083.2	388.11	-852.26	1070.5	259.25	-879.03	1048	322.17	-670.74	1131.6	135.06	-690.84	1175.5	536.76	-682.54	930.32	142.72	-754.75	972.21	570.96	-881.66	585.82	513.41	NaN	NaN	NaN	-546.17	563.17	383.17	-561.33	568.76	224.17	-977.57	62.635	407.14	-268.03	114.29	280.97	-1052.5	52.451	360.94	-345.65	76.64	333.21	-368.35	64.375	203.3	-1077.2	48.267	496.89	-1127.6	179.27	480.43	-1109.7	185.26	379.73	-487.68	128.4	311.86	-512.94	116.2	243.24	-588.77	63.558	278.11	-1226.5	206.1	418.44	-571.24	37.375	246.82	-1235.5	180.08	450.45	-564.02	36.274	311.9	-1230.1	179.34	389.92	-1047.1	474.61	502.04	-992.17	434.97	529.34	-1021.8	366.64	511.91	-1067.7	393.81	493.94	-833.3	854.96	544.01	-762.07	855.03	558.48	-782.51	765.76	551.05	-849.61	766.92	535.21	-498.21	498.62	238.51	-551.2	485.75	224.65	-543.39	423.54	231.48	-493.92	442.59	244.2	-583.03	814.87	194.3	-648.82	799.3	168.54	-618.37	731.17	185.79	-558.52	746.18	208.84
40	0.16303	-444.87	1773.5	308.12	-619.93	1525.1	543.82	-681.61	1532.6	88.514	-659.19	1070.6	536.28	-627.91	1014.2	185.72	-864.2	1083.2	388.51	-846.64	1070.8	259.54	-873.29	1048.2	322.53	-664.6	1131.5	134.84	-684.69	1175.9	535.99	-677.24	930.7	142.67	-748.56	971.95	570.91	-873.54	585.03	514.06	NaN	NaN	NaN	-540.65	563.38	382.62	-555.77	569.02	223.63	-977.14	62.295	407.18	-267.25	112.13	280.78	-1051.7	53.002	360.82	-345.16	75.172	333.11	-367.98	62.99	203.17	-1076.5	48.988	496.81	-1123.7	181.09	480.7	-1105.4	186.96	380.13	-486.55	127.97	311.71	-511.99	115.94	243.11	-588.43	63.949	278.09	-1221.6	210.05	418.44	-571.1	37.661	246.79	-1231.2	184.23	450.42	-563.87	36.502	311.85	-1226.1	183.67	389.89	-1039.9	475.59	502.23	-985.57	435.37	529.82	-1015.9	367.36	512.37	-1061.4	395.05	494.14	-826.63	854.15	544.04	-755.38	854.68	558.38	-775.3	765.28	551.15	-842.41	766	535.34	-493.39	498.25	238.03	-546.49	485.89	224.18	-539.31	423.62	231.09	-489.65	442.18	243.73	-577.64	815.11	193.66	-643.66	799.62	168.39	-613.22	731.44	185.5	-553.12	746.4	208.1
41	0.16721	-439.09	1773.7	307.47	-614	1525.7	542.66	-675.46	1532.4	87.333	-653.25	1070.6	536.06	-622.31	1014.5	185.46	-858.38	1083.2	388.92	-841.03	1071.1	259.84	-867.55	1048.4	322.9	-658.48	1131.5	134.62	-678.55	1176.4	535.19	-671.97	931.12	142.62	-742.33	971.73	570.85	-865.18	584.21	514.78	NaN	NaN	NaN	-535.23	563.57	382	-550.31	569.25	223.04	-976.65	61.903	407.24	-266.51	110.05	280.56	-1050.7	53.681	360.71	-344.68	73.771	333	-367.64	61.663	203.03	-1075.7	49.826	496.72	-1119.7	183.01	481	-1101	188.75	380.54	-485.44	127.58	311.56	-511.05	115.7	242.97	-588.1	64.328	278.09	-1216.5	214.17	418.47	-570.95	37.941	246.77	-1226.6	188.57	450.4	-563.71	36.728	311.81	-1221.8	188.21	389.9	-1032.5	476.59	502.45	-978.75	435.78	530.34	-1009.8	368.11	512.87	-1054.8	396.32	494.37	-819.87	853.31	544.08	-748.61	854.35	558.29	-767.95	764.82	551.28	-835.06	765.06	535.5	-488.67	497.85	237.49	-541.87	486	223.67	-535.31	423.69	230.66	-485.47	441.76	243.21	-572.3	815.34	192.99	-638.53	799.95	168.21	-608.12	731.73	185.17	-547.8	746.6	207.34
42	0.17139	-433.35	1774.1	306.84	-608.09	1526.4	541.51	-669.29	1532.3	86.164	-647.32	1070.7	535.83	-616.72	1014.9	185.2	-852.57	1083.3	389.33	-835.41	1071.5	260.14	-861.81	1048.6	323.28	-652.39	1131.6	134.39	-672.43	1177	534.36	-666.72	931.58	142.56	-736.08	971.55	570.77	-856.59	583.38	515.55	NaN	NaN	NaN	-529.89	563.75	381.33	-544.96	569.44	222.4	-976.07	61.455	407.33	-265.81	108.06	280.33	-1049.6	54.498	360.63	-344.23	72.433	332.89	-367.31	60.39	202.87	-1074.9	50.793	496.62	-1115.4	185.05	481.3	-1096.4	190.64	380.96	-484.35	127.21	311.39	-510.12	115.47	242.83	-587.77	64.696	278.09	-1211	218.46	418.54	-570.78	38.216	246.75	-1221.7	193.1	450.42	-563.55	36.951	311.77	-1217.2	192.96	389.93	-1024.8	477.61	502.71	-971.69	436.21	530.92	-1003.5	368.9	513.41	-1048.1	397.64	494.63	-813.01	852.46	544.13	-741.74	854.04	558.21	-760.46	764.36	551.43	-827.58	764.09	535.68	-484.05	497.44	236.9	-537.33	486.09	223.11	-531.39	423.74	230.19	-481.37	441.33	242.65	-567.01	815.57	192.3	-633.44	800.3	167.99	-603.09	732.02	184.82	-542.55	746.79	206.53
43	0.17557	-427.64	1774.4	306.23	-602.21	1527.2	540.35	-663.11	1532.3	85.009	-641.42	1070.8	535.58	-611.15	1015.4	184.93	-846.76	1083.4	389.73	-829.81	1072	260.44	-856.08	1048.9	323.66	-646.32	1131.7	134.16	-666.33	1177.7	533.51	-661.5	932.06	142.5	-729.8	971.41	570.68	-847.78	582.51	516.38	NaN	NaN	NaN	-524.64	563.91	380.61	-539.71	569.6	221.71	-975.4	60.946	407.44	-265.14	106.15	280.09	-1048.4	55.464	360.56	-343.78	71.153	332.76	-367	59.167	202.71	-1073.9	51.9	496.51	-1110.9	187.2	481.63	-1091.6	192.64	381.41	-483.28	126.87	311.22	-509.2	115.27	242.69	-587.43	65.052	278.1	-1205.3	222.92	418.64	-570.61	38.486	246.74	-1216.6	197.84	450.46	-563.37	37.174	311.75	-1212.3	197.92	390.01	-1016.8	478.65	503.03	-964.42	436.65	531.56	-996.92	369.71	513.99	-1041.1	398.99	494.94	-806.06	851.59	544.2	-734.79	853.75	558.14	-752.84	763.92	551.61	-819.96	763.1	535.9	-479.52	497.01	236.27	-532.88	486.16	222.52	-527.54	423.77	229.69	-477.37	440.88	242.05	-561.77	815.78	191.57	-628.39	800.66	167.75	-598.12	732.31	184.43	-537.37	746.96	205.7
44	0.17975	-421.97	1774.8	305.65	-596.35	1528	539.21	-656.91	1532.3	83.868	-635.53	1071	535.32	-605.58	1015.8	184.65	-840.95	1083.5	390.13	-824.2	1072.4	260.73	-850.35	1049.2	324.04	-640.3	1131.8	133.93	-660.26	1178.5	532.65	-656.29	932.57	142.43	-723.5	971.3	570.57	-838.75	581.63	517.27	NaN	NaN	NaN	-519.48	564.05	379.84	-534.57	569.71	220.99	-974.64	60.375	407.58	-264.5	104.3	279.84	-1047	56.586	360.53	-343.35	69.926	332.63	-366.7	57.995	202.54	-1072.9	53.161	496.4	-1106.2	189.48	481.98	-1086.5	194.74	381.87	-482.24	126.56	311.04	-508.28	115.07	242.55	-587.1	65.397	278.12	-1199.2	227.56	418.78	-570.43	38.751	246.73	-1211.1	202.76	450.55	-563.2	37.397	311.73	-1207.2	203.08	390.14	-1008.7	479.71	503.39	-956.91	437.1	532.25	-990.13	370.56	514.62	-1033.8	400.38	495.29	-799.01	850.7	544.3	-727.75	853.47	558.08	-745.09	763.49	551.82	-812.21	762.1	536.15	-475.08	496.57	235.6	-528.53	486.2	221.89	-523.78	423.78	229.16	-473.46	440.42	241.42	-556.58	815.97	190.82	-623.37	801.03	167.48	-593.21	732.59	184.01	-532.27	747.1	204.83
45	0.18393	-416.34	1775.2	305.08	-590.53	1528.9	538.07	-650.7	1532.4	82.744	-629.65	1071.3	535.04	-600.02	1016.3	184.37	-835.15	1083.7	390.5	-818.59	1072.9	261	-844.62	1049.5	324.4	-634.31	1132	133.69	-654.22	1179.3	531.78	-651.08	933.09	142.34	-717.18	971.23	570.45	-829.51	580.74	518.21	NaN	NaN	NaN	-514.41	564.17	379.05	-529.54	569.79	220.24	-973.77	59.739	407.75	-263.89	102.53	279.59	-1045.5	57.871	360.53	-342.93	68.748	332.5	-366.42	56.872	202.37	-1071.7	54.586	496.3	-1101.4	191.88	482.35	-1081.3	196.96	382.35	-481.23	126.28	310.85	-507.37	114.9	242.41	-586.77	65.73	278.14	-1192.9	232.38	418.98	-570.25	39.011	246.73	-1205.4	207.88	450.67	-563.03	37.62	311.72	-1201.7	208.44	390.32	-1000.2	480.79	503.82	-949.17	437.57	533	-983.12	371.44	515.27	-1026.4	401.82	495.69	-791.88	849.79	544.41	-720.63	853.21	558.04	-737.22	763.08	552.06	-804.33	761.07	536.43	-470.75	496.11	234.9	-524.28	486.22	221.24	-520.1	423.78	228.6	-469.63	439.95	240.77	-551.42	816.15	190.05	-618.39	801.41	167.18	-588.35	732.88	183.56	-527.22	747.22	203.93
46	0.18811	-410.76	1775.7	304.54	-584.76	1529.9	536.94	-644.48	1532.5	81.638	-623.8	1071.6	534.75	-594.47	1016.8	184.09	-829.35	1083.8	390.84	-812.99	1073.3	261.25	-838.89	1049.8	324.74	-628.36	1132.2	133.44	-648.22	1180.2	530.9	-645.88	933.62	142.25	-710.83	971.19	570.32	-820.07	579.82	519.19	NaN	NaN	NaN	-509.43	564.28	378.23	-524.63	569.84	219.47	-972.8	59.036	407.95	-263.29	100.82	279.34	-1043.8	59.323	360.56	-342.52	67.617	332.37	-366.14	55.8	202.2	-1070.4	56.187	496.19	-1096.3	194.42	482.74	-1075.8	199.3	382.85	-480.24	126.02	310.66	-506.46	114.74	242.27	-586.45	66.051	278.16	-1186.2	237.35	419.23	-570.07	39.265	246.73	-1199.4	213.19	450.85	-562.86	37.845	311.72	-1195.9	213.98	390.55	-991.56	481.88	504.3	-941.21	438.04	533.8	-975.88	372.36	515.96	-1018.7	403.29	496.13	-784.66	848.87	544.55	-713.44	852.96	558.02	-729.24	762.67	552.32	-796.33	760.03	536.76	-466.51	495.63	234.18	-520.12	486.22	220.57	-516.5	423.76	228.02	-465.89	439.47	240.1	-546.31	816.3	189.25	-613.44	801.79	166.87	-583.56	733.15	183.09	-522.24	747.31	203
47	0.19229	-405.24	1776.2	304.03	-579.03	1530.8	535.82	-638.26	1532.6	80.55	-617.96	1071.9	534.44	-588.92	1017.3	183.8	-823.57	1084	391.15	-807.39	1073.8	261.46	-833.16	1050	325.05	-622.45	1132.4	133.18	-642.25	1181.2	530.03	-640.67	934.16	142.13	-704.47	971.17	570.17	-810.44	578.9	520.21	NaN	NaN	NaN	-504.54	564.37	377.4	-519.82	569.86	218.68	-971.71	58.265	408.18	-262.72	99.174	279.1	-1041.9	60.943	360.64	-342.12	66.533	332.24	-365.88	54.782	202.04	-1069	57.974	496.1	-1091	197.08	483.16	-1070.1	201.75	383.37	-479.28	125.78	310.47	-505.57	114.6	242.13	-586.13	66.361	278.19	-1179.2	242.48	419.53	-569.88	39.515	246.74	-1193.1	218.67	451.07	-562.7	38.07	311.73	-1189.8	219.7	390.83	-982.66	483	504.85	-933.03	438.54	534.65	-968.41	373.31	516.68	-1010.8	404.81	496.63	-777.36	847.93	544.71	-706.18	852.73	558.01	-721.14	762.29	552.62	-788.21	758.97	537.12	-462.36	495.15	233.44	-516.05	486.2	219.89	-512.98	423.72	227.43	-462.24	438.99	239.42	-541.23	816.43	188.43	-608.53	802.16	166.53	-578.82	733.41	182.61	-517.32	747.37	202.06
48	0.19647	-399.77	1776.7	303.54	-573.35	1531.9	534.72	-632.04	1532.8	79.483	-612.14	1072.3	534.13	-583.38	1017.9	183.52	-817.79	1084.2	391.42	-801.79	1074.2	261.65	-827.43	1050.3	325.33	-616.57	1132.7	132.92	-636.33	1182.2	529.16	-635.46	934.69	142	-698.09	971.18	570.02	-800.62	577.96	521.26	NaN	NaN	NaN	-499.73	564.45	376.56	-515.12	569.85	217.88	-970.49	57.427	408.44	-262.18	97.605	278.87	-1039.7	62.73	360.77	-341.74	65.501	332.12	-365.64	53.823	201.88	-1067.4	59.955	496.02	-1085.5	199.89	483.6	-1064.2	204.32	383.92	-478.35	125.57	310.28	-504.7	114.48	242	-585.82	66.657	278.22	-1172	247.76	419.89	-569.69	39.759	246.75	-1186.5	224.31	451.35	-562.55	38.293	311.75	-1183.4	225.58	391.17	-973.51	484.14	505.46	-924.62	439.05	535.54	-960.72	374.3	517.41	-1002.6	406.37	497.18	-769.98	846.98	544.9	-698.84	852.51	558.02	-712.95	761.91	552.94	-779.99	757.91	537.52	-458.31	494.66	232.69	-512.07	486.17	219.19	-509.54	423.67	226.83	-458.68	438.49	238.73	-536.19	816.54	187.61	-603.65	802.54	166.17	-574.12	733.66	182.1	-512.45	747.4	201.1
49	0.20065	-394.35	1777.2	303.09	-567.73	1532.9	533.64	-625.81	1533	78.437	-606.32	1072.7	533.8	-577.84	1018.4	183.23	-812.03	1084.3	391.65	-796.2	1074.7	261.79	-821.69	1050.6	325.57	-610.72	1133	132.65	-630.44	1183.2	528.3	-630.24	935.23	141.85	-691.7	971.21	569.86	-790.64	577.02	522.33	NaN	NaN	NaN	-495.02	564.51	375.71	-510.52	569.81	217.07	-969.13	56.523	408.74	-261.66	96.116	278.66	-1037.4	64.68	360.94	-341.38	64.522	332.02	-365.4	52.926	201.73	-1065.6	62.136	495.95	-1079.8	202.82	484.07	-1058.2	207.01	384.48	-477.45	125.38	310.1	-503.86	114.37	241.87	-585.53	66.941	278.25	-1164.4	253.17	420.3	-569.51	39.997	246.76	-1179.7	230.1	451.68	-562.4	38.514	311.78	-1176.7	231.61	391.56	-964.15	485.3	506.13	-915.99	439.57	536.46	-952.8	375.32	518.17	-994.3	407.97	497.78	-762.52	846.03	545.11	-691.45	852.3	558.05	-704.65	761.56	553.29	-771.67	756.84	537.96	-454.36	494.16	231.93	-508.19	486.12	218.5	-506.18	423.62	226.23	-455.2	438	238.04	-531.17	816.62	186.77	-598.79	802.91	165.8	-569.48	733.9	181.59	-507.64	747.4	200.14
